<?xml version="1.0" standalone="no"?>
<!DOCTYPE svg PUBLIC "-//W3C//DTD SVG 20010904//EN"
 "http://www.w3.org/TR/2001/REC-SVG-20010904/DTD/svg10.dtd">
<svg version="1.0" xmlns="http://www.w3.org/2000/svg"
 width="260.000000pt" height="260.000000pt" viewBox="0 0 260.000000 260.000000"
 preserveAspectRatio="xMidYMid meet">
<metadata>
Created by potrace 1.11, written by Peter Selinger 2001-2013
</metadata>
<g transform="translate(0.000000,260.000000) scale(0.100000,-0.100000)"
fill="#000000" stroke="none">
<path d="M1096 2397 c-48 -27 -75 -62 -80 -104 -3 -20 -16 -42 -33 -57 l-28
-25 -25 23 c-14 13 -36 33 -50 46 -14 12 -43 31 -65 41 -37 17 -41 17 -58 1
-26 -23 -19 -56 35 -177 l45 -100 -46 -13 c-25 -7 -65 -21 -88 -32 -55 -25
-55 -46 -3 -125 22 -33 40 -62 40 -65 0 -4 -12 -11 -27 -16 -24 -9 -33 -6 -65
18 -65 51 -127 53 -176 8 l-23 -21 32 -40 c17 -22 29 -43 25 -46 -3 -4 -6 -2
-6 3 0 25 -126 74 -191 74 -44 0 -83 -28 -74 -52 4 -9 22 -29 41 -43 70 -53
34 -89 -82 -82 -71 5 -76 4 -91 -19 -14 -23 -14 -28 0 -65 15 -39 15 -40 -6
-48 -32 -13 -68 -67 -69 -103 -1 -26 8 -41 51 -80 29 -27 73 -55 101 -65 41
-15 50 -22 55 -48 4 -16 17 -57 30 -90 13 -33 38 -97 55 -142 18 -45 54 -122
82 -170 167 -293 393 -482 683 -569 79 -24 110 -27 260 -30 139 -3 185 0 255
15 261 58 476 198 665 431 131 161 257 416 292 587 10 51 10 54 3 83 -4 14 -1
42 7 64 19 54 17 151 -4 186 -20 34 -55 55 -78 46 -9 -3 -27 -31 -40 -61 -14
-30 -26 -55 -27 -55 -2 0 -25 8 -53 18 -39 14 -54 25 -66 52 -17 34 -16 35 24
100 23 36 51 79 63 95 28 40 34 68 23 111 -16 55 -88 89 -143 68 -9 -3 -38
-35 -66 -70 -30 -38 -55 -61 -63 -58 -8 3 -27 34 -42 71 -16 36 -37 70 -47 77
-15 9 -18 24 -18 81 0 80 -14 109 -62 130 -59 24 -171 -17 -183 -68 -4 -16
-14 -22 -36 -23 -17 -1 -43 -10 -58 -21 -27 -20 -27 -20 -51 -1 -24 19 -25 25
-22 114 3 93 3 93 -22 100 -38 9 -71 -2 -86 -31 -18 -33 -22 -27 -27 42 -6 87
-6 87 -66 80 -28 -4 -69 -9 -90 -13 -35 -6 -40 -4 -79 40 -35 38 -47 46 -77
46 -20 0 -54 -10 -75 -23z"/>
</g>
</svg>
